<svg width="90" height="91" viewBox="0 0 90 91" fill="none" xmlns="http://www.w3.org/2000/svg">
<path fill-rule="evenodd" clip-rule="evenodd" d="M11.2458 52.3344C11.2449 52.1509 11.2808 51.9691 11.3512 51.7997C11.4217 51.6303 11.5253 51.4767 11.656 51.3479C11.7866 51.2191 11.9417 51.1177 12.1122 51.0497C12.2826 50.9817 12.4649 50.9484 12.6483 50.9519L21.1898 51.084C21.9644 51.096 22.5885 51.7349 22.5839 52.5144L22.5 66.3898C22.4983 66.5742 22.5331 66.7571 22.6025 66.928C22.6719 67.0988 22.7745 67.2542 22.9043 67.3852C23.0341 67.5162 23.1885 67.6202 23.3587 67.6911C23.5289 67.7621 23.7114 67.7987 23.8958 67.7987H26.7101C27.0828 67.7984 27.4401 67.65 27.7034 67.3863C27.9667 67.1225 28.1146 66.765 28.1144 66.3923V18.5993C28.1145 18.4144 28.1511 18.2314 28.222 18.0606C28.2929 17.8898 28.3968 17.7347 28.5276 17.6041C28.6585 17.4735 28.8138 17.37 28.9847 17.2994C29.1556 17.2288 29.3387 17.1926 29.5236 17.1929H43.5738C43.7588 17.1924 43.942 17.2285 44.113 17.299C44.2841 17.3695 44.4395 17.473 44.5704 17.6037C44.7013 17.7344 44.8052 17.8897 44.876 18.0606C44.9468 18.2315 44.9831 18.4147 44.983 18.5996V55.1462C44.9827 55.519 45.1305 55.8766 45.3939 56.1404C45.6572 56.4042 46.0146 56.5526 46.3873 56.553H49.2016C49.3863 56.5527 49.5692 56.516 49.7398 56.4451C49.9104 56.3741 50.0653 56.2702 50.1957 56.1393C50.3261 56.0084 50.4294 55.8532 50.4998 55.6823C50.5702 55.5115 50.6062 55.3285 50.6059 55.1437V41.0936C50.605 40.9095 50.641 40.7271 50.7117 40.5571C50.7824 40.3872 50.8863 40.233 51.0174 40.1038C51.1485 39.9746 51.3041 39.8729 51.4751 39.8046C51.6461 39.7364 51.8289 39.703 52.013 39.7065L60.4445 39.8379C60.6283 39.8414 60.8108 39.8082 60.9816 39.7401C61.1523 39.6721 61.3078 39.5707 61.4388 39.4419C61.5699 39.313 61.6739 39.1593 61.7448 38.9897C61.8157 38.8202 61.852 38.6381 61.8516 38.4544V29.8443C61.8519 29.6595 61.8885 29.4765 61.9594 29.3059C62.0304 29.1352 62.1342 28.9801 62.2651 28.8496C62.396 28.7191 62.5513 28.6156 62.7221 28.5451C62.893 28.4746 63.076 28.4384 63.2609 28.4386H77.311C77.6841 28.4382 78.0422 28.586 78.3064 28.8495C78.5706 29.1129 78.7195 29.4705 78.7202 29.8436V49.7008C78.7201 50.073 78.5724 50.43 78.3094 50.6935C78.0463 50.9569 77.6896 51.1052 77.3173 51.1058H74.676C74.4913 51.1055 74.3085 51.0687 74.1381 50.9977C73.9676 50.9266 73.8128 50.8227 73.6826 50.6919C73.5523 50.561 73.4491 50.4057 73.3788 50.235C73.3085 50.0642 73.2726 49.8813 73.2731 49.6966V35.6464C73.2734 35.4617 73.2373 35.2787 73.1669 35.1079C73.0965 34.9371 72.9932 34.7818 72.8628 34.651C72.7324 34.5201 72.5775 34.4162 72.4069 34.3452C72.2364 34.2742 72.0535 34.2375 71.8688 34.2372H69.0545C68.6798 34.2383 68.3204 34.3863 68.0536 34.6495C67.7868 34.9126 67.6339 35.27 67.6277 35.6447L67.497 43.8998C67.4901 44.2747 67.3366 44.6321 67.0693 44.8952C66.8021 45.1583 66.4424 45.3062 66.0674 45.3072H57.6359C57.4509 45.3073 57.2678 45.3439 57.097 45.4147C56.9262 45.4856 56.771 45.5895 56.6403 45.7203C56.5097 45.8512 56.4061 46.0065 56.3354 46.1774C56.2648 46.3484 56.2286 46.5315 56.2287 46.7165V60.7666C56.2287 61.1404 56.0803 61.4988 55.816 61.7631C55.5517 62.0274 55.1933 62.1759 54.8195 62.1759H40.7694C40.5844 62.1763 40.4011 62.1403 40.2301 62.0698C40.0591 61.9993 39.9036 61.8957 39.7727 61.765C39.6418 61.6343 39.538 61.4791 39.4672 61.3082C39.3964 61.1373 39.36 60.9541 39.3601 60.7691V24.2225C39.3604 23.8498 39.2126 23.4922 38.9493 23.2283C38.6859 22.9645 38.3286 22.8161 37.9558 22.8157H35.1416C34.7689 22.8161 34.4116 22.9645 34.1482 23.2282C33.8849 23.492 33.7371 23.8495 33.7373 24.2222V72.0152C33.7371 72.2001 33.7006 72.3831 33.6297 72.5539C33.5587 72.7246 33.4549 72.8797 33.324 73.0103C33.1932 73.141 33.0378 73.2445 32.8669 73.3151C32.696 73.3856 32.5129 73.4218 32.328 73.4216H18.2779C17.9041 73.4216 17.5457 73.2731 17.2814 73.0088C17.0171 72.7446 16.8686 72.3861 16.8686 72.0124V57.9622C16.869 57.7775 16.8329 57.5945 16.7625 57.4237C16.6921 57.2529 16.5888 57.0976 16.4584 56.9668C16.3279 56.8359 16.173 56.732 16.0025 56.661C15.8319 56.59 15.6491 56.5533 15.4643 56.553H12.6501C12.4657 56.553 12.2831 56.5167 12.1127 56.4461C11.9423 56.3755 11.7875 56.2721 11.6571 56.1417C11.5267 56.0113 11.4232 55.8565 11.3527 55.6861C11.2821 55.5157 11.2458 55.3331 11.2458 55.1487V52.3344Z" fill="#F24E1E"/>
</svg>
