<svg width="156" height="26" viewBox="0 0 156 26" fill="none" xmlns="http://www.w3.org/2000/svg">
<path d="M56.8103 0C53.9954 0 51.82 1.0247 50.1567 2.6881C47.7257 5.1191 47.7234 8.189 47.7234 12.5392C47.7234 16.7614 47.5977 19.8351 50.1567 22.3941C51.948 24.1854 53.9954 25.0783 56.8103 25.0783C57.578 25.0783 58.2161 24.9516 58.8558 24.8236H67.1709L64.7414 20.5995C65.8929 18.4244 65.8934 15.8658 65.8934 12.5392C65.8934 8.3169 65.8911 5.247 63.4601 2.6881C61.7968 0.896799 59.6251 0 56.8103 0ZM107.222 0C104.407 0 102.231 0.896799 100.568 2.6881C98.009 5.247 98.135 8.3169 98.135 12.5392C98.135 16.8894 98.137 19.9631 100.568 22.3941C102.231 24.0574 104.407 25.0783 107.222 25.0783C110.037 25.0783 112.208 24.1854 113.872 22.3941C116.303 19.8351 116.305 16.7614 116.305 12.5392C116.305 8.189 116.302 5.1191 113.872 2.6881C112.08 1.0247 110.037 0 107.222 0ZM9.4671 0.129299C4.0933 0.129299 0.897301 3.2007 0.897301 7.5509C0.897301 9.598 1.5365 11.2622 2.6881 12.4137C3.7116 13.4373 5.3744 14.2033 7.4216 14.4592L10.3644 14.8432C11.5159 15.0991 12.0274 15.2287 12.5392 15.7405C13.051 16.2523 13.3072 16.8904 13.3072 17.786C13.3072 19.8332 11.7725 20.8581 8.9576 20.8581C6.7825 20.8581 4.6074 20.3441 3.0721 18.8088L0 21.8808C2.431 24.3118 5.2472 25.0783 8.9576 25.0783C14.0755 25.0783 18.17 22.3908 18.17 17.6567C18.17 15.4816 17.5295 13.6932 16.25 12.4137C15.2264 11.3901 13.8195 10.7496 11.5164 10.4937L8.5736 10.1097C7.5501 9.8538 6.7814 9.5987 6.2696 9.0869C5.7578 8.5751 5.5016 7.9359 5.5016 7.2961C5.5016 5.6328 6.7827 4.2241 9.3416 4.2241C10.877 4.2241 12.7946 4.3502 14.3299 5.8856L17.402 2.9428C15.3548 0.895599 12.7937 0.129299 9.4671 0.129299ZM25.0783 0.258499V24.8236H41.3283V20.5995H29.9412V14.5885H39.663V10.2389H29.9412V4.4788H41.3283V0.258499H25.0783ZM73.056 0.258499V16.3792C73.056 21.6251 77.153 25.0783 82.143 25.0783C87.133 25.0783 91.097 21.6251 91.097 16.3792V0.258499H86.364V16.25C86.364 19.0648 84.702 20.7288 82.143 20.7288C79.584 20.7288 77.919 19.0648 77.919 16.25V0.258499H73.056ZM123.342 0.258499V24.8236H128.076V0.258499H123.342ZM143.045 0.258499L134.087 24.8236H139.079L140.615 20.4741H149.314L150.721 24.8236H155.713L146.755 0.258499H143.045ZM56.681 4.3534C57.9605 4.3534 59.1133 4.8632 59.7531 5.6308C60.6487 6.6544 60.9013 7.8051 60.9013 12.5392C60.9013 17.2732 60.6487 18.4277 59.7531 19.4513C59.1133 20.219 57.9605 20.7288 56.681 20.7288C55.4015 20.7288 54.2487 20.219 53.609 19.4513C52.7133 18.4277 52.4569 17.2732 52.4569 12.5392C52.4569 7.8051 52.7133 6.6544 53.609 5.6308C54.2487 4.8632 55.4015 4.3534 56.681 4.3534ZM107.222 4.3534C108.501 4.3534 109.65 4.8632 110.29 5.6308C111.186 6.6544 111.442 7.8051 111.442 12.5392C111.442 17.2732 111.186 18.4277 110.29 19.4513C109.65 20.219 108.501 20.7288 107.222 20.7288C105.942 20.7288 104.789 20.219 104.15 19.4513C103.254 18.4277 102.998 17.2732 102.998 12.5392C102.998 7.8051 103.254 6.6544 104.15 5.6308C104.789 4.8632 105.942 4.3534 107.222 4.3534ZM144.965 7.4216L148.037 16.3792H141.893L144.965 7.4216Z" fill="white"/>
</svg>
